<?xml version="1.0" encoding="utf-8"?>
<!-- Generator: Adobe Illustrator 24.1.2, SVG Export Plug-In . SVG Version: 6.00 Build 0)  -->
<svg width="70px" height="70px" viewBox="0 0 50 39" version="1.1" xmlns="http://www.w3.org/2000/svg" xmlns:xlink="http://www.w3.org/1999/xlink" x="0px" y="0px"
	 viewBox="0 0 2834.65 2834.65" style="enable-background:new 0 0 2834.65 2834.65;" xml:space="preserve">
<style type="text/css">
	.st0{enable-background:new    ;}
	.st1{clip-path:url(#SVGID_2_);}
	.st2{fill:url(#SVGID_3_);}
	.st3{fill:url(#SVGID_4_);}
	.st4{fill:url(#SVGID_5_);}
	.st5{fill:url(#SVGID_6_);}
	.st6{fill:url(#SVGID_7_);}
	.st7{fill:url(#SVGID_8_);}
	.st8{fill:url(#SVGID_9_);}
	.st9{fill:url(#SVGID_10_);}
	.st10{fill:url(#SVGID_11_);}
	.st11{fill:url(#SVGID_12_);}
	.st12{fill:url(#SVGID_13_);}
	.st13{fill:url(#SVGID_14_);}
	.st14{fill:url(#SVGID_15_);}
	.st15{fill:url(#SVGID_16_);}
</style>
<g id="Calque_2">
</g>
<g id="Logo">
	<g>
		<g>
			<g class="st0">
				<g>
					<g class="st0">
						<defs>
							<path id="SVGID_1_" class="st0" d="M1058.16,2050.96c-12.62-7.33-29.45-17.15-41.48-25.43
								c-19.15-13.18-44.19-31.49-62.34-46.02c-24.8-19.86-54.66-50.16-76.68-73.07c-14.48-15.07-32.39-36.59-44.31-53.75
								c-11.04-15.9-26.03-36.94-36.3-53.35c-8.87-14.18-19.63-33.73-27.44-48.52c-8.85-16.75-19.22-39.82-26.48-57.32
								c-6.53-15.74-13.63-37.35-19.46-53.35c-6.49-17.79-12.96-42.32-16.65-60.9c-6.81-34.38-14.17-80.67-16.61-115.64
								c-2.23-32.01-2.83-75.11,1.07-106.97c2.33-19.03,4.07-44.64,8.05-63.39c3.61-16.97,7.71-39.76,12.06-56.55
								c4.73-18.24,11.29-42.58,18.17-60.12c6.19-15.78,13.85-37.08,20.75-52.56c7.66-17.18,18.7-39.73,27.73-56.22
								c7.97-14.55,19.27-33.59,28.4-47.44c10.53-15.96,24.91-37.1,37.1-51.84c20.41-24.67,48.48-57.02,71.78-78.97
								c13.96-13.14,33.31-29.88,48.19-41.97c11.59-9.42,27.55-21.39,39.96-29.69c16.67-11.15,39.38-25.32,56.68-35.46
								c10.98-6.43,26.03-14.35,37.55-19.75c11.25-5.28,26.28-12.29,37.72-17.16c9.53-4.06,22.47-8.91,32.15-12.59
								c15.82-6.01,37.43-12.63,53.74-17.18c7.9-2.2,18.46-5.08,26.46-6.86c15.17-3.38,35.45-7.6,50.75-10.36
								c15.05-2.71,42.03-6.03,59.05-7.33c6.03-0.46,22.03-1.68,33.56-1.98c4.79-0.13,11.17-0.38,15.96-0.4
								c4.74-0.01,11.06-0.08,15.8-0.05c4.73,0.04,11.04,0.2,15.78,0.3c0.14,0,15.6,0.41,32.17,1.66
								c5.43,0.41,18.16,1.37,34.36,3.35c5.52,0.68,12.88,1.65,18.38,2.47c6.06,0.9,14.11,2.27,20.16,3.26
								c6.47,1.06,15.08,2.68,21.48,4.11c14.74,3.3,34.33,8,48.92,11.92c9.71,2.61,22.5,6.66,32.05,9.81
								c11.17,3.69,25.91,9.03,36.85,13.33c11.27,4.44,26.09,10.88,37.16,15.81c17.37,7.73,39.74,19.74,56.41,28.88
								c-102.76-58.38-225.77-83.84-358.02-66.05c132.25-17.78,255.26,7.67,358.02,66.05h0c25.33,15.55,59.28,36.26,82.62,54.66
								c16.1,12.69,37.12,30.19,52.33,43.94c11.91,10.77,27.18,25.84,37.98,37.72c13.45,14.79,30.87,34.99,43.27,50.67
								c10.24,12.95,22.99,30.93,32.13,44.68c10.61,15.96,23.69,37.93,32.93,54.72c8.11,14.74,17.6,35.1,24.86,50.28
								c8.15,17.06,16.93,40.75,23.19,58.58c5.68,16.19,11.59,38.32,16.55,54.74c5.5,18.2,10.81,43.12,13.23,61.98
								c2.24,17.44,5.94,40.62,7.38,58.14c1.59,19.37,2.69,45.3,2.72,64.74c0.06,35.43-4.56,82.64-9.69,117.69
								c-3.06,20.92-8.68,48.66-14.8,68.9c-4.97,16.4-11.11,38.43-16.87,54.56c-6.26,17.54-14.95,40.89-23.16,57.61
								c-7.39,15.07-16.88,35.37-25.03,50.05c-9.02,16.26-21.82,37.51-32.12,52.99c-9.1,13.68-21.87,31.52-32.05,44.43
								c-11.62,14.74-27.7,33.98-40.56,47.65c-10.9,11.59-25.73,26.78-37.44,37.54c-14.15,12.99-33.55,29.75-48.69,41.57
								c-11.7,9.14-27.61,20.95-40,29.12c-16.82,11.1-39.84,24.98-57.28,35.07c-10.85,6.28-25.83,13.75-37.16,19.1
								c-13.44,6.34-31.5,14.56-45.39,19.85c-15.75,6-36.91,13.6-53,18.59c-15.58,4.83-36.61,10.43-52.5,14.09
								c-29.56,6.81-53.79,10.45-65.61,12.02c-30.33,4.01-51.26,5.26-70.96,6.05c-18.73,0.75-43.65,0.6-63.42-0.49
								c-6.09-0.34-18.75-1.03-32.98-2.44c-10.78-1.06-25.12-2.79-35.84-4.36c-15.54-2.27-22-3.53-41.16-7.25
								c-7.5-1.46-17.41-3.81-24.84-5.57c-8.12-1.92-18.88-4.78-26.9-7.08c-9.04-2.59-21.07-6.16-29.97-9.22
								c-11.12-3.83-25.91-9.03-36.86-13.33c-11.27-4.44-26.09-10.88-37.16-15.81C1097.2,2072.11,1074.61,2060.5,1058.16,2050.96z"
								/>
						</defs>
						<clipPath id="SVGID_2_">
							<use xlink:href="#SVGID_1_"  style="overflow:visible;"/>
						</clipPath>
						<g class="st1">
							<g>
								<linearGradient id="SVGID_3_" gradientUnits="userSpaceOnUse" x1="1275.0389" y1="742.4381" x2="1418.7894" y2="742.4381">
									<stop  offset="0" style="stop-color:#EE3877"/>
									<stop  offset="1" style="stop-color:#F68F62"/>
								</linearGradient>
								<path class="st2" d="M1282.25,748.65c13.42-16.68,62.35-39.85,136.54-31.02l0,0c-60.76-5.23-131.66,8.67-143.75,51.56
									C1275.88,761.17,1276.44,755.87,1282.25,748.65"/>
								<linearGradient id="SVGID_4_" gradientUnits="userSpaceOnUse" x1="1323.8346" y1="795.3792" x2="1823.5123" y2="795.3792">
									<stop  offset="0" style="stop-color:#EE3877"/>
									<stop  offset="1" style="stop-color:#F68F62"/>
								</linearGradient>
								<path class="st3" d="M1776.81,783.68l26.55,15.84c56.25,39.82-19.48,59.09-54.65,65.53
									c-211.9,38.77-467.62-67.97-418.83-124.37c8.31-9.6,36.38-25.26,88.9-23.05l0,0c-41.37,16.33,6.91,41.14,17.01,45.95
									c96.56,45.98,332.11,47.73,320.62,13.09c-1.06-3.19-5.21-5.92-7.88-7.97C1758.13,773.43,1767.55,778.42,1776.81,783.68"/>
							</g>
							<linearGradient id="SVGID_5_" gradientUnits="userSpaceOnUse" x1="1066.8444" y1="907.4858" x2="2053.2485" y2="907.4858">
								<stop  offset="0" style="stop-color:#EE3877"/>
								<stop  offset="1" style="stop-color:#F68F62"/>
							</linearGradient>
							<path class="st4" d="M1993.01,970.67l-29.32-35.34c-0.65,1.65-1.52,3.84-2.17,5.49c-8.08,3.09-32.67,12.5-146.81,8.81
								c-152.85,6.46-310.47-5.77-432.43-33.56c-207.43-47.2-292.42-119.76-206.67-176.47c42.5-28.11,110.26-38.98,135.76-43.07
								c-9.92,1.64-23.15,3.85-33.04,5.72c-7.94,1.63-18.54,3.77-26.45,5.56c-212.82,52.89-245.25,153.44-80.72,250.19
								c308.09,181.17,920.86,200.42,880.15,100.08C2039.46,1028.89,2012.36,995.56,1993.01,970.67"/>
							<linearGradient id="SVGID_6_" gradientUnits="userSpaceOnUse" x1="1274.632" y1="833.5764" x2="1963.6927" y2="833.5764">
								<stop  offset="0" style="stop-color:#EE3877"/>
								<stop  offset="1" style="stop-color:#F68F62"/>
							</linearGradient>
							<path class="st5" d="M1911.76,882.28c15.8,15.69,36.95,36.58,51.93,53.05c-0.65,1.65-1.52,3.84-2.17,5.49
								c-8.08,3.09-32.67,12.5-146.81,8.81c-368.02-17.47-549.88-116.02-539.68-180.45c17.12-52.15,109.57-54.9,143.75-51.56l0,0
								c-76.7-1.81-116.67,27.62-85.53,62.99c84.99,96.54,530.18,120.79,571.46,95.87c-0.15-0.32-0.34-0.74-0.48-1.06
								L1911.76,882.28"/>
							<g>
								<linearGradient id="SVGID_7_" gradientUnits="userSpaceOnUse" x1="827.0659" y1="1032.214" x2="887.0033" y2="1032.214">
									<stop  offset="0" style="stop-color:#EE3877"/>
									<stop  offset="1" style="stop-color:#F68F62"/>
								</linearGradient>
								<path class="st6" d="M835.15,1081.97c-18.47-49.49-5.24-99.99,39.34-150.12L887,918.23c-49.18,57.3-88.65,129.2-8.48,227.98
									C857.24,1121.59,844.39,1106.74,835.15,1081.97"/>
								<linearGradient id="SVGID_8_" gradientUnits="userSpaceOnUse" x1="864.5925" y1="1091.0945" x2="2132.8503" y2="1091.0945">
									<stop  offset="0" style="stop-color:#EE3877"/>
									<stop  offset="1" style="stop-color:#F68F62"/>
								</linearGradient>
								<path class="st7" d="M2132.85,1278.75c-8.42,167.38-983.15,87.03-1223.65-187.37c-23-26.24-92.99-106.09,10.11-205.39
									l6.11-5.67c50.36-43.05,51.32-43.87,80.39-63.89c-25.97,19.39-94.95,70.91-33.46,150.03
									c233.45,265.9,1124.68,336.1,1140.31,235.17c0.21-1.33-0.35-3.11-0.5-4.44C2118.82,1221.53,2128.25,1253.93,2132.85,1278.75
									"/>
							</g>
							<linearGradient id="SVGID_9_" gradientUnits="userSpaceOnUse" x1="718.4796" y1="1398.2668" x2="2143.6472" y2="1398.2668">
								<stop  offset="0" style="stop-color:#EE3877"/>
								<stop  offset="1" style="stop-color:#F68F62"/>
							</linearGradient>
							<path class="st8" d="M2134.13,1548.77c3.08-21.78,7.54-50.78,9.52-72.69c-8.72,4.13-24.97,11.82-157.02,8.12
								c-306.9,15.55-558.68-20.15-715.85-52.85c-370.48-77.98-563.34-196.5-515.9-317.02c-7.67,18.62-18.31,43.29-25.1,62.25
								l-5.05,14.92c-6.39,27.27-7.9,33.75-4.42,63.92c104.11,383.69,1329.7,495.47,1389.21,387.98
								C2123.72,1617.75,2129.08,1577.67,2134.13,1548.77"/>
							<linearGradient id="SVGID_10_" gradientUnits="userSpaceOnUse" x1="832.8134" y1="1185.5868" x2="2145.9995" y2="1185.5868">
								<stop  offset="0" style="stop-color:#EE3877"/>
								<stop  offset="1" style="stop-color:#F68F62"/>
							</linearGradient>
							<path class="st9" d="M2146,1418.52l-2.35,57.56c-8.72,4.13-24.97,11.82-157.02,8.12c-585.28-24.03-978.26-187.07-1108.1-338
								c-29.35-39.29-90.43-121.04,8.48-227.98l32.31-32.23c-261.19,268.96,520.74,509.11,1140.14,501.57
								c20.62-0.25,70.24-1.39,85.66-6.57L2146,1418.52"/>
							<g>
								<linearGradient id="SVGID_11_" gradientUnits="userSpaceOnUse" x1="703.3089" y1="1613.588" x2="756.7743" y2="1613.588">
									<stop  offset="0" style="stop-color:#EE3877"/>
									<stop  offset="1" style="stop-color:#F68F62"/>
								</linearGradient>
								<path class="st10" d="M711.18,1592.04l-5.97-21.01l-1.9-9.14c12.12,42.97,16.81,56.16,53.47,103.4
									C733.61,1636.5,721.98,1622.04,711.18,1592.04"/>
								
									<linearGradient id="SVGID_12_" gradientUnits="userSpaceOnUse" x1="688.9802" y1="1638.9872" x2="2050.9709" y2="1638.9872">
									<stop  offset="0" style="stop-color:#EE3877"/>
									<stop  offset="1" style="stop-color:#F68F62"/>
								</linearGradient>
								<path class="st11" d="M2003.93,1849.41c-1.56,1.62-172.62,157.89-781.86-4.68c-222.4-59.35-494.62-167.37-528.5-344.98
									c-1.8-25.06-4.23-58.51-4.6-83.63l2.29-56.74c0.65,38.27,2.86,49.24,26.78,89.07
									c242.76,318.29,1243.17,438.79,1332.92,328.69C2037.33,1799.12,2020.39,1829.45,2003.93,1849.41"/>
							</g>
							<linearGradient id="SVGID_13_" gradientUnits="userSpaceOnUse" x1="760.1277" y1="1909.8674" x2="1883.8765" y2="1909.8674">
								<stop  offset="0" style="stop-color:#EE3877"/>
								<stop  offset="1" style="stop-color:#F68F62"/>
							</linearGradient>
							<path class="st12" d="M1804.95,2034.13c-19.48,11.47-45.73,26.32-65.77,36.78c-152.87,60.43-782.02-43.76-924.66-244.65
								l-17.46-26.93c-11.38-20.11-26.64-46.9-36.93-67.59c97.63,164.5,502.83,226.81,624.7,241.98
								c337.32,39.49,498.2,3.49,499.05,3.04C1860.77,1994.74,1829.69,2018.5,1804.95,2034.13"/>
							<linearGradient id="SVGID_14_" gradientUnits="userSpaceOnUse" x1="693.5802" y1="1743.6437" x2="1948.2739" y2="1743.6437">
								<stop  offset="0" style="stop-color:#EE3877"/>
								<stop  offset="1" style="stop-color:#F68F62"/>
							</linearGradient>
							<path class="st13" d="M1904,1959.36l-20.12,17.41c-15.02,5.38-25.86,9.26-97.91,10.77
								c-366.28,0.03-851.39-120.49-1029.19-322.24c-33.2-43.61-40.8-56.26-53.47-103.4c-2.98-18.63-7.56-43.39-9.73-62.13
								c73.19,383.7,1162.7,454.22,1254.69,416.35C1935.07,1929.16,1917.89,1947.04,1904,1959.36"/>
							<linearGradient id="SVGID_15_" gradientUnits="userSpaceOnUse" x1="921.7758" y1="2047.8528" x2="1602.7825" y2="2047.8528">
								<stop  offset="0" style="stop-color:#EE3877"/>
								<stop  offset="1" style="stop-color:#F68F62"/>
							</linearGradient>
							<path class="st14" d="M1514.66,2139.35c-25.04,3.04-25.04,3.04-37.46,4.06l-10.62,0.8c-86.32,3.94-263.86-16.28-399.17-88.1
								l-9.24-5.16c-49.76-30.5-60.11-36.85-103.82-71.45l-32.57-28.48c171.12,141.58,549.28,196.2,681.01,170.76
								C1575.64,2128.41,1550.01,2134.66,1514.66,2139.35"/>
							
								<linearGradient id="SVGID_16_" gradientUnits="userSpaceOnUse" x1="1067.4011" y1="2101.0012" x2="1466.5747" y2="2101.0012">
								<stop  offset="0" style="stop-color:#EE3877"/>
								<stop  offset="1" style="stop-color:#F68F62"/>
							</linearGradient>
							<path class="st15" d="M1443.64,2145.4c-21.21,0.53-21.21,0.53-31.76,0.44c-21.06-0.4-21.06-0.4-31.61-0.94
								c-21.51-1.34-21.92-1.37-32.98-2.44l-4.56-0.46c-47.53-5.63-89.02-12.83-148.97-31.34c-12.65-4.4-29.53-10.24-42.03-15.03
								c-47.22-20.09-52.16-22.19-84.33-39.53c121.56,64.52,292.83,93.16,399.17,88.1C1459.7,2144.6,1450.53,2145.18,1443.64,2145.4
								"/>
						</g>
					</g>
				</g>
			</g>
		</g>
	</g>
</g>
</svg>
