<?xml version="1.0" encoding="utf-8"?>
<!-- Generator: Adobe Illustrator 24.1.2, SVG Export Plug-In . SVG Version: 6.00 Build 0)  -->
<svg height="50px" version="1.1" id="Layer_1" xmlns="http://www.w3.org/2000/svg" xmlns:xlink="http://www.w3.org/1999/xlink" x="0px" y="0px"
	 viewBox="0 0 50 13.23" style="enable-background:new 0 0 50 13.23;" xml:space="preserve">
<style type="text/css">
	.st0{fill:#B92C2A;}
	.st1{font-family:'Montserrat-Regular';}
	.st2{font-size:10.5528px;}
</style>
<desc>Created with Sketch.</desc>
<g>
	<text transform="matrix(1 0 0 1 12.8242 11.0499)" class="st0 st1 st2">unikist</text>
	<g>
		<g>
			<g>
				<path class="st0" d="M7.97,6.89c-0.02,0-0.04-0.01-0.06-0.02L4.37,4.83C4.33,4.81,4.31,4.77,4.31,4.72s0.02-0.09,0.06-0.11
					l3.54-2.04c0.04-0.02,0.09-0.02,0.13,0S8.1,2.63,8.1,2.68v4.09c0,0.05-0.02,0.09-0.06,0.11C8.01,6.89,7.99,6.89,7.97,6.89z
					 M4.68,4.72l3.16,1.82V2.89L4.68,4.72z"/>
				<path class="st0" d="M7.97,6.96c-0.03,0-0.07-0.01-0.1-0.03L4.33,4.89c-0.06-0.03-0.1-0.1-0.1-0.16c0-0.07,0.04-0.13,0.1-0.16
					l3.54-2.04C7.93,2.5,8,2.5,8.06,2.53c0.06,0.03,0.1,0.1,0.1,0.16v4.09c0,0.07-0.04,0.13-0.1,0.16C8.04,6.95,8,6.96,7.97,6.96z
					 M7.97,2.62c-0.01,0-0.02,0-0.03,0.01L4.4,4.67C4.38,4.68,4.37,4.7,4.37,4.72c0,0.02,0.01,0.04,0.03,0.05l3.54,2.04
					c0.02,0.01,0.04,0.01,0.06,0C8.02,6.8,8.03,6.78,8.03,6.76V2.67c0-0.02-0.01-0.04-0.03-0.05C7.99,2.62,7.98,2.62,7.97,2.62z
					 M7.91,6.66L4.56,4.73L7.91,2.8V6.66z M4.81,4.72l2.97,1.71V3L4.81,4.72z"/>
			</g>
		</g>
		<g>
			<g>
				<polygon class="st0" points="2.1,8.94 2,8.94 0.74,6.77 0.8,6.68 0.92,6.75 1,6.7 2.18,8.75 2.1,8.8 				"/>
				<path class="st0" d="M2.16,9h-0.2L0.67,6.77l0.1-0.18l0.15,0.09l0.1-0.06l1.24,2.15l-0.1,0.06V9z M0.82,6.77l1.22,2.11V8.77
					L2.1,8.74L0.98,6.81L0.92,6.84L0.82,6.77L0.82,6.77z"/>
			</g>
			<g>
				<path class="st0" d="M4.43,8.94c-0.02,0-0.04-0.01-0.06-0.02L0.83,6.88C0.79,6.86,0.77,6.82,0.77,6.77s0.02-0.09,0.06-0.11
					l3.54-2.04c0.04-0.02,0.09-0.02,0.13,0s0.06,0.06,0.06,0.11v4.09c0,0.05-0.02,0.09-0.06,0.11C4.47,8.93,4.45,8.94,4.43,8.94z
					 M1.14,6.77L4.3,8.59V4.94L1.14,6.77z"/>
				<path class="st0" d="M4.43,9C4.4,9,4.36,8.99,4.33,8.97L0.8,6.93C0.74,6.9,0.7,6.83,0.7,6.77c0-0.07,0.04-0.13,0.1-0.16
					l3.54-2.04c0.06-0.03,0.13-0.03,0.19,0s0.1,0.1,0.1,0.16v4.09c0,0.07-0.04,0.13-0.1,0.16C4.5,8.99,4.46,9,4.43,9z M4.43,4.66
					c-0.01,0-0.02,0-0.03,0.01L0.86,6.71C0.84,6.72,0.83,6.74,0.83,6.76c0,0.02,0.01,0.04,0.03,0.05L4.4,8.85
					c0.02,0.01,0.04,0.01,0.06,0S4.49,8.82,4.49,8.8V4.71c0-0.02-0.01-0.04-0.03-0.05C4.45,4.66,4.44,4.66,4.43,4.66z M4.37,8.7
					L1.02,6.77l3.35-1.93V8.7z M1.27,6.77l2.97,1.71V5.05L1.27,6.77z"/>
			</g>
		</g>
		<g>
			<g>
				<rect x="5.61" y="10.73" class="st0" width="2.36" height="0.25"/>
				<path class="st0" d="M8.03,11.04H5.55v-0.38h2.49v0.38H8.03z M5.67,10.92H7.9v-0.13H5.67V10.92z"/>
			</g>
			<g>
				<path class="st0" d="M7.97,10.98c-0.02,0-0.04-0.01-0.06-0.02L4.37,8.92C4.33,8.9,4.31,8.86,4.31,8.81S4.33,8.72,4.37,8.7
					l3.54-2.04c0.04-0.02,0.09-0.02,0.13,0S8.1,6.72,8.1,6.77v4.09c0,0.05-0.02,0.09-0.06,0.11C8.01,10.98,7.99,10.98,7.97,10.98z
					 M4.68,8.81l3.16,1.82V6.98L4.68,8.81z"/>
				<path class="st0" d="M7.97,11.05c-0.03,0-0.07-0.01-0.1-0.03L4.33,8.98c-0.06-0.03-0.1-0.1-0.1-0.16c0-0.07,0.04-0.13,0.09-0.16
					l3.54-2.04c0.06-0.03,0.13-0.03,0.19,0c0.06,0.03,0.1,0.1,0.1,0.16v4.09c0,0.07-0.04,0.13-0.1,0.16
					C8.04,11.04,8,11.05,7.97,11.05z M7.97,6.7c-0.01,0-0.02,0-0.03,0.01L4.4,8.76C4.38,8.77,4.37,8.79,4.37,8.81
					c0,0.02,0.01,0.04,0.03,0.05l3.54,2.04c0.02,0.01,0.04,0.01,0.06,0c0.02-0.01,0.03-0.03,0.03-0.05V6.76
					c0-0.02-0.01-0.04-0.03-0.05C7.99,6.71,7.98,6.7,7.97,6.7z M7.91,10.75L4.56,8.82l3.35-1.93V10.75z M4.81,8.81l2.97,1.71V7.09
					L4.81,8.81z"/>
			</g>
		</g>
		<g>
			<path class="st0" d="M8.11,10.98H3.2L0.75,6.71L3.2,2.44h4.91l2.45,4.27L8.11,10.98z M3.34,10.73h4.61l2.31-4.01L7.95,2.71H3.34
				L1.03,6.72L3.34,10.73z"/>
			<path class="st0" d="M8.14,11.05H3.16l-0.02-0.03l-2.47-4.3l0.02-0.03l2.47-4.3h4.98l0.02,0.03l2.47,4.3l-0.02,0.03L8.14,11.05z
				 M3.23,10.92h4.83l2.42-4.2l-2.42-4.2H3.23l-2.42,4.2L3.23,10.92z M8,10.79H3.31l-0.02-0.03L0.96,6.71l0.02-0.03l2.33-4.05H8
				l0.02,0.03l2.33,4.05l-0.02,0.03L8,10.79z M3.38,10.67h4.54l2.27-3.95L7.92,2.77H3.38L1.11,6.72L3.38,10.67z"/>
		</g>
	</g>
</g>
</svg>
